<?xml version="1.0" encoding="utf-8"?>
<!-- Generator: Adobe Illustrator 23.0.4, SVG Export Plug-In . SVG Version: 6.00 Build 0)  -->
<svg version="1.1" id="Capa_1" xmlns="http://www.w3.org/2000/svg" xmlns:xlink="http://www.w3.org/1999/xlink" x="0px" y="0px"
	 viewBox="0 0 1183 254.18" style="enable-background:new 0 0 1183 254.18;" xml:space="preserve">
<style type="text/css">
	.st0{fill:#1D1D1B;}
	.st1{fill:#F08C10;}
</style>
<g>
	<g>
		<path class="st0" d="M1043.08,175.67c0,6.43,0.89,12.66,2.69,18.66c1.79,6.01,4.49,11.26,8.08,15.76
			c3.59,4.51,8.13,8.1,13.62,10.78c5.49,2.68,12.04,4.02,19.64,4.02c10.56,0,19.06-2.3,25.5-6.92c6.44-4.61,11.25-11.53,14.41-20.75
			h34.21c-1.9,9.01-5.18,17.05-9.82,24.13c-4.65,7.08-10.25,13.03-16.79,17.86c-6.55,4.82-13.89,8.47-22.02,10.94
			c-8.13,2.46-16.63,3.7-25.5,3.7c-12.88,0-24.29-2.15-34.21-6.43c-9.93-4.29-18.32-10.29-25.19-18.02
			c-6.86-7.72-12.03-16.94-15.52-27.67c-3.48-10.72-5.22-22.52-5.22-35.38c0-11.79,1.85-23,5.55-33.62
			c3.69-10.62,8.97-19.94,15.84-27.99c6.86-8.04,15.15-14.42,24.86-19.14c9.71-4.71,20.7-7.08,32.95-7.08
			c12.88,0,24.44,2.73,34.69,8.2c10.24,5.47,18.74,12.71,25.5,21.71c6.76,9.01,11.66,19.36,14.73,31.04
			c3.06,11.69,3.85,23.75,2.37,36.19H1043.08z M1127.34,151.55c-0.43-5.79-1.64-11.36-3.64-16.73c-2.01-5.36-4.75-10.02-8.24-13.99
			c-3.49-3.97-7.71-7.18-12.67-9.65c-4.96-2.46-10.51-3.7-16.63-3.7c-6.33,0-12.09,1.13-17.26,3.38c-5.18,2.25-9.61,5.36-13.3,9.33
			c-3.7,3.97-6.66,8.64-8.87,13.99c-2.22,5.36-3.44,11.15-3.64,17.37H1127.34z"/>
		<path class="st0" d="M577.9,253.84c-13.1,0-24.76-2.2-35-6.59c-10.25-4.39-18.9-10.46-25.98-18.17
			c-7.08-7.72-12.46-16.94-16.16-27.67c-3.7-10.72-5.54-22.52-5.54-35.38c0-12.65,1.85-24.34,5.54-35.06
			c3.69-10.72,9.08-19.94,16.16-27.67c7.07-7.72,15.73-13.78,25.98-18.18c10.24-4.39,21.91-6.59,35-6.59c13.09,0,24.76,2.2,35,6.59
			c10.24,4.4,18.9,10.46,25.98,18.18c7.07,7.72,12.46,16.94,16.16,27.67c3.69,10.73,5.54,22.41,5.54,35.06
			c0,12.87-1.85,24.66-5.54,35.38c-3.7,10.73-9.08,19.95-16.16,27.67c-7.08,7.72-15.73,13.78-25.98,18.17
			C602.66,251.64,591,253.84,577.9,253.84 M577.9,224.89c8.02,0,14.99-1.72,20.91-5.15c5.91-3.43,10.77-7.93,14.57-13.51
			c3.8-5.58,6.6-11.85,8.39-18.82c1.79-6.97,2.69-14.1,2.69-21.39c0-7.08-0.9-14.15-2.69-21.23c-1.8-7.08-4.59-13.35-8.39-18.82
			c-3.8-5.47-8.66-9.92-14.57-13.35c-5.91-3.43-12.88-5.15-20.91-5.15c-8.03,0-15,1.72-20.91,5.15
			c-5.92,3.43-10.77,7.88-14.57,13.35c-3.8,5.47-6.6,11.74-8.4,18.82c-1.8,7.08-2.69,14.15-2.69,21.23c0,7.29,0.9,14.43,2.69,21.39
			c1.79,6.97,4.59,13.24,8.4,18.82c3.8,5.58,8.66,10.08,14.57,13.51C562.91,223.18,569.88,224.89,577.9,224.89"/>
		<path class="st1" d="M40.15,91.24c-6.98,0-13.31-2.75-18.06-7.21v165.31h36.11V84.03C53.46,88.49,47.13,91.24,40.15,91.24"/>
		<path class="st1" d="M60.3,52.29c0,11.3-9.02,20.46-20.15,20.46c-11.13,0-20.15-9.16-20.15-20.46c0-11.3,9.02-20.46,20.15-20.46
			C51.28,31.83,60.3,40.99,60.3,52.29"/>
		<path class="st1" d="M87.67,83.03h34.21v24.45l0.63,0.64c5.49-9.22,12.67-16.46,21.54-21.71c8.87-5.25,18.69-7.88,29.46-7.88
			c17.95,0,32.1,4.72,42.45,14.15c10.34,9.44,15.52,23.59,15.52,42.46v114.2h-36.11V144.79c-0.43-13.08-3.17-22.57-8.24-28.47
			c-5.07-5.9-12.99-8.85-23.76-8.85c-6.13,0-11.62,1.13-16.47,3.38c-4.86,2.25-8.98,5.36-12.35,9.33
			c-3.38,3.97-6.02,8.64-7.92,13.99c-1.9,5.36-2.85,11.05-2.85,17.05v98.12H87.67V83.03z"/>
		<path class="st0" d="M300.67,228.88c0,11.3-9.02,20.46-20.15,20.46c-11.13,0-20.15-9.16-20.15-20.46
			c0-11.3,9.02-20.46,20.15-20.46C291.65,208.43,300.67,217.59,300.67,228.88"/>
		<path class="st0" d="M364.9,106.19c10.72-18.67,29.39-28.7,52.56-28.7c22.48,0,40.46,8.99,49.8,24.55
			c5.53,9.34,7.61,20.4,7.61,40.46v106.86h-37V148.03c0-14.87-1.39-22.13-5.19-27.66c-5.18-7.96-14.87-12.1-27.32-12.1
			c-16.26,0-29.05,7.96-35.62,22.13c-3.8,8.64-4.84,16.26-4.84,39.07v79.88h-37V18.7h37V106.19z"/>
		<path class="st0" d="M828.92,249.35h-34.58v-24.9c-15.21,20.4-31.81,29.39-55.33,29.39c-19.02,0-35.61-6.92-45.64-19.02
			c-8.3-10.03-11.41-22.82-11.41-45.3V82.32h37v95.44c0,19.37,1.04,26.98,4.84,32.85c4.84,7.96,14.53,12.45,26.97,12.45
			c15.56,0,28.36-7.61,35.62-21.44c4.15-7.61,5.53-17.64,5.53-37.34V82.32h37V249.35z"/>
		<path class="st0" d="M951.66,130.73c-2.42-18.33-13.14-25.93-35.96-25.93c-19.02,0-30.09,7.26-30.09,19.37
			c0,12.45,6.57,16.26,42.53,23.86c24.9,5.19,38.04,10.03,48.42,17.29s16.6,19.71,16.6,33.89c0,33.54-28.36,54.64-72.96,54.64
			c-47.38,0-72.96-19.71-75.04-58.1h35.28c2.42,21.09,15.21,30.77,40.45,30.77c21.79,0,35.97-9.68,35.97-24.21
			c0-12.45-7.61-17.29-39.77-24.9c-33.88-7.61-38.38-8.99-48.07-14.53c-12.8-7.26-20.06-20.05-20.06-35.61
			c0-30.78,25.59-49.45,68.12-49.45c25.93,0,46.34,7.26,58.1,20.75c7.26,8.29,10.38,16.6,11.76,32.15H951.66z"/>
	</g>
</g>
</svg>
